<svg width="147" height="34" viewBox="0 0 147 34" fill="none" xmlns="http://www.w3.org/2000/svg">
<path fill-rule="evenodd" clip-rule="evenodd" d="M11.7745 0.318359C9.75771 0.318359 8.11816 1.96454 8.11816 3.9973V4.81325C8.11816 6.84316 6.48286 8.49219 4.46178 8.49219H3.65052C1.63369 8.49219 -0.00585938 10.1384 -0.00585938 12.1711V24.8399H4.46037C6.47719 24.8399 8.11674 23.1937 8.11674 21.1609V8.49219H20.7056C22.7224 8.49219 24.3605 6.84601 24.3605 4.81325V0.318359H11.7745ZM39.0036 8.03056V24.9786H42.6286V8.03056H39.0036ZM44.9802 8.03056V24.9786H48.5111V12.3002L54.8901 24.9786H59.5744V8.03056H56.0435V20.7089L49.6645 8.03056H44.9802ZM66.4043 24.9786V8.03056H68.0991H70.0293H78.3621V10.8082H70.0293V15.6336H77.8207V18.4112H70.0293V24.9786H66.4043ZM80.1945 8.03056V24.9786H83.8195V18.0111H84.3673L89.7513 24.9786H94.6474L88.408 17.992C89.3701 17.9326 90.2259 17.735 90.9753 17.399C91.8855 16.9753 92.5916 16.3947 93.0938 15.6572C93.596 14.9039 93.847 14.033 93.847 13.0443C93.847 12.04 93.596 11.1612 93.0938 10.408C92.5916 9.65474 91.8855 9.07412 90.9753 8.66611C90.0651 8.24241 88.998 8.03056 87.774 8.03056H80.1945ZM83.8195 15.3512H87.6798C88.5429 15.3512 89.202 15.155 89.6571 14.7627C90.1279 14.3547 90.3633 13.7897 90.3633 13.0679C90.3633 12.3303 90.1357 11.7732 89.6807 11.3966C89.2256 11.0043 88.5586 10.8082 87.6798 10.8082H83.8195V15.3512ZM95.3999 24.9786L101.473 8.03056H102.273H104.58H105.522L111.595 24.9786H107.828L106.602 21.2359H100.233L99.0013 24.9786H95.3999ZM101.163 18.4112L103.424 11.542L105.676 18.4112H101.163ZM113.344 8.03056V24.9786H116.781V11.2299L120.735 24.9786H124.478L128.456 11.1675V24.9786H132.034V8.03056H126.361L122.677 20.8135L118.994 8.03056H113.344ZM134.378 24.9786V8.03056H136.072H138.003H146.712V10.8082H138.003V14.951H146.171V17.6815H138.003V22.201H146.994V24.9786H138.003H136.072H134.378ZM24.3638 12.1714C24.3638 10.1387 26.002 8.49251 28.0188 8.49251H32.485V21.1612C32.485 23.194 30.8469 24.8402 28.8301 24.8402H24.3638V29.3351C24.3638 31.3678 22.7257 33.014 20.7089 33.014H8.12004V28.5191C8.12004 26.4864 9.7596 24.8402 11.7764 24.8402H20.7089C22.7285 24.8402 24.3638 23.1911 24.3638 21.1612V12.1714Z" fill="white"/>
</svg>
